M48
; DRILL file {KiCad 5.1.10-88a1d61d58~88~ubuntu20.04.1} date Thu Jul 15 18:12:25 2021
; FORMAT={-:-/ absolute / inch / decimal}
; #@! TF.CreationDate,2021-07-15T18:12:25+08:00
; #@! TF.GenerationSoftware,Kicad,Pcbnew,5.1.10-88a1d61d58~88~ubuntu20.04.1
; #@! TF.FileFunction,Plated,1,2,PTH
FMAT,2
INCH
T1C0.0157
T2C0.0394
T3C0.0866
%
G90
G05
T1
X5.235Y-3.35
X5.235Y-4.8
X5.2541Y-3.3041
X5.2541Y-3.3959
X5.2541Y-4.7541
X5.2541Y-4.8459
X5.3Y-3.285
X5.3Y-3.415
X5.3Y-4.735
X5.3Y-4.865
X5.3459Y-3.3041
X5.3459Y-3.3959
X5.3459Y-4.7541
X5.3459Y-4.8459
X5.365Y-3.35
X5.365Y-4.8
X5.3819Y-3.5118
X5.3819Y-3.7953
X5.4134Y-3.3976
X5.4488Y-4.5236
X5.4528Y-4.1772
X5.689Y-3.6929
X5.689Y-3.7441
X5.689Y-4.4961
X5.6929Y-3.8465
X6.5157Y-3.7008
X6.5157Y-3.75
X6.6772Y-4.4961
X6.7638Y-3.8976
X6.7795Y-3.3543
X6.7913Y-3.4449
X6.811Y-3.5591
X6.835Y-3.35
X6.835Y-4.8
X6.8541Y-3.3041
X6.8541Y-3.3959
X6.8541Y-4.7541
X6.8541Y-4.8459
X6.8976Y-4.1024
X6.8976Y-4.1969
X6.8976Y-4.252
X6.8976Y-4.6772
X6.9Y-3.285
X6.9Y-3.415
X6.9Y-4.735
X6.9Y-4.865
X6.9459Y-3.3041
X6.9459Y-3.3959
X6.9459Y-4.7541
X6.9459Y-4.8459
X6.965Y-3.35
X6.965Y-4.8
T2
X5.75Y-4.8
X5.85Y-4.8
X5.95Y-4.8
X6.05Y-4.8
X6.15Y-4.8
X6.25Y-4.8
X6.35Y-4.8
X6.45Y-4.8
X6.75Y-4.5
X6.75Y-4.6
T3
X5.3Y-3.35
X5.3Y-4.8
X6.9Y-3.35
X6.9Y-4.8
T0
M30
