%TF.GenerationSoftware,KiCad,Pcbnew,5.1.10-88a1d61d58~88~ubuntu20.04.1*%
%TF.CreationDate,2021-07-15T18:12:03+08:00*%
%TF.ProjectId,ble_heart,626c655f-6865-4617-9274-2e6b69636164,rev?*%
%TF.SameCoordinates,Original*%
%TF.FileFunction,Copper,L1,Top*%
%TF.FilePolarity,Positive*%
%FSLAX46Y46*%
G04 Gerber Fmt 4.6, Leading zero omitted, Abs format (unit mm)*
G04 Created by KiCad (PCBNEW 5.1.10-88a1d61d58~88~ubuntu20.04.1) date 2021-07-15 18:12:03*
%MOMM*%
%LPD*%
G01*
G04 APERTURE LIST*
%TA.AperFunction,ComponentPad*%
%ADD10C,0.700000*%
%TD*%
%TA.AperFunction,ComponentPad*%
%ADD11C,4.400000*%
%TD*%
%TA.AperFunction,SMDPad,CuDef*%
%ADD12R,1.800000X0.700000*%
%TD*%
%TA.AperFunction,SMDPad,CuDef*%
%ADD13R,0.700000X1.800000*%
%TD*%
%TA.AperFunction,SMDPad,CuDef*%
%ADD14R,1.400000X1.600000*%
%TD*%
%TA.AperFunction,SMDPad,CuDef*%
%ADD15R,1.300000X0.600000*%
%TD*%
%TA.AperFunction,ComponentPad*%
%ADD16O,1.700000X1.700000*%
%TD*%
%TA.AperFunction,ComponentPad*%
%ADD17R,1.700000X1.700000*%
%TD*%
%TA.AperFunction,SMDPad,CuDef*%
%ADD18R,2.400000X0.740000*%
%TD*%
%TA.AperFunction,SMDPad,CuDef*%
%ADD19R,1.500000X1.000000*%
%TD*%
%TA.AperFunction,ViaPad*%
%ADD20C,0.800000*%
%TD*%
%TA.AperFunction,Conductor*%
%ADD21C,0.250000*%
%TD*%
G04 APERTURE END LIST*
D10*
%TO.P,H4,1*%
%TO.N,GND*%
X135786726Y-83923274D03*
X134620000Y-83440000D03*
X133453274Y-83923274D03*
X132970000Y-85090000D03*
X133453274Y-86256726D03*
X134620000Y-86740000D03*
X135786726Y-86256726D03*
X136270000Y-85090000D03*
D11*
X134620000Y-85090000D03*
%TD*%
D10*
%TO.P,H3,1*%
%TO.N,GND*%
X176426726Y-83923274D03*
X175260000Y-83440000D03*
X174093274Y-83923274D03*
X173610000Y-85090000D03*
X174093274Y-86256726D03*
X175260000Y-86740000D03*
X176426726Y-86256726D03*
X176910000Y-85090000D03*
D11*
X175260000Y-85090000D03*
%TD*%
D10*
%TO.P,H2,1*%
%TO.N,GND*%
X176426726Y-120753274D03*
X175260000Y-120270000D03*
X174093274Y-120753274D03*
X173610000Y-121920000D03*
X174093274Y-123086726D03*
X175260000Y-123570000D03*
X176426726Y-123086726D03*
X176910000Y-121920000D03*
D11*
X175260000Y-121920000D03*
%TD*%
D10*
%TO.P,H1,1*%
%TO.N,GND*%
X135786726Y-120753274D03*
X134620000Y-120270000D03*
X133453274Y-120753274D03*
X132970000Y-121920000D03*
X133453274Y-123086726D03*
X134620000Y-123570000D03*
X135786726Y-123086726D03*
X136270000Y-121920000D03*
D11*
X134620000Y-121920000D03*
%TD*%
D12*
%TO.P,U1,43*%
%TO.N,GND*%
X163690000Y-93880000D03*
%TO.P,U1,42*%
X163690000Y-95150000D03*
%TO.P,U1,41*%
%TO.N,BUTTON_1*%
X163690000Y-97690000D03*
%TO.P,U1,40*%
%TO.N,Net-(U1-Pad40)*%
X163690000Y-98960000D03*
%TO.P,U1,39*%
%TO.N,Net-(U1-Pad39)*%
X163690000Y-100230000D03*
%TO.P,U1,38*%
%TO.N,SWD_IO*%
X163690000Y-101500000D03*
%TO.P,U1,37*%
%TO.N,SWD_CLK*%
X163690000Y-102770000D03*
%TO.P,U1,36*%
%TO.N,RST*%
X163690000Y-104040000D03*
%TO.P,U1,35*%
%TO.N,Net-(U1-Pad35)*%
X163690000Y-105310000D03*
%TO.P,U1,34*%
%TO.N,Net-(U1-Pad34)*%
X163690000Y-106580000D03*
%TO.P,U1,33*%
%TO.N,SWO*%
X163690000Y-107850000D03*
%TO.P,U1,32*%
%TO.N,Net-(U1-Pad32)*%
X163690000Y-109120000D03*
%TO.P,U1,31*%
%TO.N,Net-(U1-Pad31)*%
X163690000Y-110390000D03*
%TO.P,U1,30*%
%TO.N,Net-(U1-Pad30)*%
X163690000Y-111660000D03*
%TO.P,U1,29*%
%TO.N,Net-(U1-Pad29)*%
X163690000Y-112930000D03*
%TO.P,U1,28*%
%TO.N,Net-(U1-Pad28)*%
X163690000Y-114200000D03*
D13*
%TO.P,U1,27*%
%TO.N,Net-(J2-Pad8)*%
X161925000Y-115950000D03*
%TO.P,U1,26*%
%TO.N,Net-(J2-Pad7)*%
X160655000Y-115950000D03*
%TO.P,U1,25*%
%TO.N,Net-(J2-Pad6)*%
X159385000Y-115950000D03*
%TO.P,U1,24*%
%TO.N,Net-(J2-Pad5)*%
X158115000Y-115950000D03*
%TO.P,U1,23*%
%TO.N,Net-(J2-Pad4)*%
X156845000Y-115950000D03*
%TO.P,U1,22*%
%TO.N,Net-(J2-Pad3)*%
X155575000Y-115950000D03*
%TO.P,U1,21*%
%TO.N,Net-(J2-Pad2)*%
X154305000Y-115950000D03*
%TO.P,U1,20*%
%TO.N,Net-(J2-Pad1)*%
X153035000Y-115950000D03*
%TO.P,U1,19*%
%TO.N,Net-(U1-Pad19)*%
X151765000Y-115950000D03*
%TO.P,U1,18*%
%TO.N,Net-(U1-Pad18)*%
X150495000Y-115950000D03*
%TO.P,U1,17*%
%TO.N,+3V3*%
X149225000Y-115950000D03*
%TO.P,U1,16*%
X147955000Y-115950000D03*
D12*
%TO.P,U1,15*%
%TO.N,GND*%
X146190000Y-114200000D03*
%TO.P,U1,14*%
%TO.N,Net-(U1-Pad14)*%
X146190000Y-112930000D03*
%TO.P,U1,13*%
%TO.N,Net-(U1-Pad13)*%
X146190000Y-111660000D03*
%TO.P,U1,12*%
%TO.N,Net-(U1-Pad12)*%
X146190000Y-110390000D03*
%TO.P,U1,11*%
%TO.N,RGB_1_PWR*%
X146190000Y-109120000D03*
%TO.P,U1,10*%
%TO.N,RGB_1_CTRL*%
X146190000Y-107850000D03*
%TO.P,U1,9*%
%TO.N,Net-(U1-Pad9)*%
X146190000Y-106580000D03*
%TO.P,U1,8*%
%TO.N,Net-(U1-Pad8)*%
X146190000Y-105310000D03*
%TO.P,U1,7*%
%TO.N,RGB_2_PWR*%
X146190000Y-104040000D03*
%TO.P,U1,6*%
%TO.N,RGB_2_CTRL*%
X146190000Y-102770000D03*
%TO.P,U1,5*%
%TO.N,BUTTON_2*%
X146190000Y-101500000D03*
%TO.P,U1,4*%
%TO.N,Net-(U1-Pad4)*%
X146190000Y-100230000D03*
%TO.P,U1,3*%
%TO.N,Net-(U1-Pad3)*%
X146190000Y-98960000D03*
%TO.P,U1,2*%
%TO.N,GND*%
X146190000Y-97690000D03*
%TO.P,U1,1*%
X146190000Y-95150000D03*
%TO.P,U1,0*%
X146190000Y-93880000D03*
%TD*%
D14*
%TO.P,SW2,2*%
%TO.N,BUTTON_2*%
X141200000Y-96310000D03*
X141200000Y-89110000D03*
%TO.P,SW2,1*%
%TO.N,GND*%
X138200000Y-96310000D03*
X138200000Y-89110000D03*
%TD*%
%TO.P,SW1,2*%
%TO.N,BUTTON_1*%
X168680000Y-90380000D03*
X168680000Y-97580000D03*
%TO.P,SW1,1*%
%TO.N,GND*%
X171680000Y-90380000D03*
X171680000Y-97580000D03*
%TD*%
D15*
%TO.P,Q2,1*%
%TO.N,RGB_2_PWR*%
X143290000Y-106360000D03*
%TO.P,Q2,2*%
%TO.N,+3V3*%
X143290000Y-104460000D03*
%TO.P,Q2,3*%
%TO.N,Net-(D2-Pad1)*%
X141190000Y-105410000D03*
%TD*%
%TO.P,Q1,1*%
%TO.N,RGB_1_PWR*%
X143290000Y-112710000D03*
%TO.P,Q1,2*%
%TO.N,+3V3*%
X143290000Y-110810000D03*
%TO.P,Q1,3*%
%TO.N,Net-(D1-Pad1)*%
X141190000Y-111760000D03*
%TD*%
D16*
%TO.P,J3,2*%
%TO.N,+3V3*%
X171450000Y-116840000D03*
D17*
%TO.P,J3,1*%
%TO.N,GND*%
X171450000Y-114300000D03*
%TD*%
%TO.P,J2,1*%
%TO.N,Net-(J2-Pad1)*%
X146050000Y-121920000D03*
D16*
%TO.P,J2,2*%
%TO.N,Net-(J2-Pad2)*%
X148590000Y-121920000D03*
%TO.P,J2,3*%
%TO.N,Net-(J2-Pad3)*%
X151130000Y-121920000D03*
%TO.P,J2,4*%
%TO.N,Net-(J2-Pad4)*%
X153670000Y-121920000D03*
%TO.P,J2,5*%
%TO.N,Net-(J2-Pad5)*%
X156210000Y-121920000D03*
%TO.P,J2,6*%
%TO.N,Net-(J2-Pad6)*%
X158750000Y-121920000D03*
%TO.P,J2,7*%
%TO.N,Net-(J2-Pad7)*%
X161290000Y-121920000D03*
%TO.P,J2,8*%
%TO.N,Net-(J2-Pad8)*%
X163830000Y-121920000D03*
%TD*%
D18*
%TO.P,J1,10*%
%TO.N,RST*%
X169500000Y-104140000D03*
%TO.P,J1,9*%
%TO.N,GND*%
X173400000Y-104140000D03*
%TO.P,J1,8*%
%TO.N,Net-(J1-Pad8)*%
X169500000Y-105410000D03*
%TO.P,J1,7*%
%TO.N,Net-(J1-Pad7)*%
X173400000Y-105410000D03*
%TO.P,J1,6*%
%TO.N,SWO*%
X169500000Y-106680000D03*
%TO.P,J1,5*%
%TO.N,GND*%
X173400000Y-106680000D03*
%TO.P,J1,4*%
%TO.N,SWD_CLK*%
X169500000Y-107950000D03*
%TO.P,J1,3*%
%TO.N,GND*%
X173400000Y-107950000D03*
%TO.P,J1,2*%
%TO.N,SWD_IO*%
X169500000Y-109220000D03*
%TO.P,J1,1*%
%TO.N,+3V3*%
X173400000Y-109220000D03*
%TD*%
D19*
%TO.P,D2,1*%
%TO.N,Net-(D2-Pad1)*%
X133440000Y-101270000D03*
%TO.P,D2,2*%
%TO.N,Net-(D2-Pad2)*%
X133440000Y-104470000D03*
%TO.P,D2,4*%
%TO.N,RGB_2_CTRL*%
X138340000Y-101270000D03*
%TO.P,D2,3*%
%TO.N,GND*%
X138340000Y-104470000D03*
%TD*%
%TO.P,D1,1*%
%TO.N,Net-(D1-Pad1)*%
X133440000Y-110160000D03*
%TO.P,D1,2*%
%TO.N,Net-(D1-Pad2)*%
X133440000Y-113360000D03*
%TO.P,D1,4*%
%TO.N,RGB_1_CTRL*%
X138340000Y-110160000D03*
%TO.P,D1,3*%
%TO.N,GND*%
X138340000Y-113360000D03*
%TD*%
%TO.P,C2,2*%
%TO.N,GND*%
%TA.AperFunction,SMDPad,CuDef*%
G36*
G01*
X139250000Y-85885000D02*
X139250000Y-86835000D01*
G75*
G02*
X139000000Y-87085000I-250000J0D01*
G01*
X138500000Y-87085000D01*
G75*
G02*
X138250000Y-86835000I0J250000D01*
G01*
X138250000Y-85885000D01*
G75*
G02*
X138500000Y-85635000I250000J0D01*
G01*
X139000000Y-85635000D01*
G75*
G02*
X139250000Y-85885000I0J-250000D01*
G01*
G37*
%TD.AperFunction*%
%TO.P,C2,1*%
%TO.N,BUTTON_2*%
%TA.AperFunction,SMDPad,CuDef*%
G36*
G01*
X141150000Y-85885000D02*
X141150000Y-86835000D01*
G75*
G02*
X140900000Y-87085000I-250000J0D01*
G01*
X140400000Y-87085000D01*
G75*
G02*
X140150000Y-86835000I0J250000D01*
G01*
X140150000Y-85885000D01*
G75*
G02*
X140400000Y-85635000I250000J0D01*
G01*
X140900000Y-85635000D01*
G75*
G02*
X141150000Y-85885000I0J-250000D01*
G01*
G37*
%TD.AperFunction*%
%TD*%
%TO.P,C1,2*%
%TO.N,GND*%
%TA.AperFunction,SMDPad,CuDef*%
G36*
G01*
X170630000Y-88105000D02*
X170630000Y-87155000D01*
G75*
G02*
X170880000Y-86905000I250000J0D01*
G01*
X171380000Y-86905000D01*
G75*
G02*
X171630000Y-87155000I0J-250000D01*
G01*
X171630000Y-88105000D01*
G75*
G02*
X171380000Y-88355000I-250000J0D01*
G01*
X170880000Y-88355000D01*
G75*
G02*
X170630000Y-88105000I0J250000D01*
G01*
G37*
%TD.AperFunction*%
%TO.P,C1,1*%
%TO.N,BUTTON_1*%
%TA.AperFunction,SMDPad,CuDef*%
G36*
G01*
X168730000Y-88105000D02*
X168730000Y-87155000D01*
G75*
G02*
X168980000Y-86905000I250000J0D01*
G01*
X169480000Y-86905000D01*
G75*
G02*
X169730000Y-87155000I0J-250000D01*
G01*
X169730000Y-88105000D01*
G75*
G02*
X169480000Y-88355000I-250000J0D01*
G01*
X168980000Y-88355000D01*
G75*
G02*
X168730000Y-88105000I0J250000D01*
G01*
G37*
%TD.AperFunction*%
%TD*%
D20*
%TO.N,GND*%
X175200000Y-118800000D03*
X169600000Y-114200000D03*
X175200000Y-108000000D03*
X175200000Y-106600000D03*
X175200000Y-104200000D03*
X171800000Y-99000000D03*
X173000000Y-90400000D03*
X172200000Y-85200000D03*
X165500000Y-94000000D03*
X165500000Y-95250000D03*
X144500000Y-95100000D03*
X144500000Y-93800000D03*
X144600000Y-97700000D03*
X136700000Y-96400000D03*
X136700000Y-89200000D03*
X137500000Y-86300000D03*
X138500000Y-106100000D03*
X138400000Y-114900000D03*
X144500000Y-114200000D03*
X172500000Y-87500000D03*
%TD*%
D21*
%TO.N,+3V3*%
X173400000Y-114890000D02*
X171450000Y-116840000D01*
X173400000Y-109220000D02*
X173400000Y-114890000D01*
X144939999Y-123095001D02*
X143900000Y-122055002D01*
X165194999Y-123095001D02*
X144939999Y-123095001D01*
X171450000Y-116840000D02*
X165194999Y-123095001D01*
X143900000Y-120005000D02*
X147955000Y-115950000D01*
X143900000Y-122055002D02*
X143900000Y-120005000D01*
X149225000Y-115950000D02*
X147955000Y-115950000D01*
X144994998Y-115950000D02*
X147955000Y-115950000D01*
X142314999Y-113270001D02*
X144994998Y-115950000D01*
X142314999Y-111349997D02*
X142314999Y-113270001D01*
X137479997Y-111134999D02*
X142100001Y-111134999D01*
X137264999Y-110920001D02*
X137479997Y-111134999D01*
X137264999Y-109399999D02*
X137264999Y-110920001D01*
X139265008Y-107399990D02*
X137264999Y-109399999D01*
X142314999Y-107399990D02*
X139265008Y-107399990D01*
X142314999Y-105435001D02*
X142314999Y-107399990D01*
X143290000Y-104460000D02*
X142314999Y-105435001D01*
X142232501Y-110967499D02*
X142232501Y-111267499D01*
X142390000Y-110810000D02*
X142232501Y-110967499D01*
X142232501Y-111267499D02*
X142314999Y-111349997D01*
X143290000Y-110810000D02*
X142390000Y-110810000D01*
X142100001Y-111134999D02*
X142232501Y-111267499D01*
%TO.N,GND*%
X171680000Y-88180000D02*
X171130000Y-87630000D01*
X171680000Y-90380000D02*
X171680000Y-88180000D01*
X175260000Y-118860000D02*
X175200000Y-118800000D01*
X175260000Y-121920000D02*
X175260000Y-118860000D01*
X171350000Y-114200000D02*
X171450000Y-114300000D01*
X169600000Y-114200000D02*
X171350000Y-114200000D01*
X173480000Y-106600000D02*
X173400000Y-106680000D01*
X175200000Y-106600000D02*
X173480000Y-106600000D01*
X173450000Y-108000000D02*
X173400000Y-107950000D01*
X175200000Y-108000000D02*
X173450000Y-108000000D01*
X173460000Y-104200000D02*
X173400000Y-104140000D01*
X175200000Y-104200000D02*
X173460000Y-104200000D01*
X171800000Y-97700000D02*
X171680000Y-97580000D01*
X171800000Y-99000000D02*
X171800000Y-97700000D01*
X172980000Y-90380000D02*
X173000000Y-90400000D01*
X171680000Y-90380000D02*
X172980000Y-90380000D01*
X172370000Y-87630000D02*
X172500000Y-87500000D01*
X171130000Y-87630000D02*
X172370000Y-87630000D01*
X175150000Y-85200000D02*
X175260000Y-85090000D01*
X172200000Y-85200000D02*
X175150000Y-85200000D01*
X165380000Y-93880000D02*
X165500000Y-94000000D01*
X163690000Y-93880000D02*
X165380000Y-93880000D01*
X163790000Y-95250000D02*
X163690000Y-95150000D01*
X165500000Y-95250000D02*
X163790000Y-95250000D01*
X144610000Y-97690000D02*
X144600000Y-97700000D01*
X146190000Y-97690000D02*
X144610000Y-97690000D01*
X144550000Y-95150000D02*
X144500000Y-95100000D01*
X146190000Y-95150000D02*
X144550000Y-95150000D01*
X144580000Y-93880000D02*
X144500000Y-93800000D01*
X146190000Y-93880000D02*
X144580000Y-93880000D01*
X136790000Y-96310000D02*
X136700000Y-96400000D01*
X138200000Y-96310000D02*
X136790000Y-96310000D01*
X136790000Y-89110000D02*
X136700000Y-89200000D01*
X138200000Y-89110000D02*
X136790000Y-89110000D01*
X136290000Y-85090000D02*
X137500000Y-86300000D01*
X134620000Y-85090000D02*
X136290000Y-85090000D01*
X138690000Y-86300000D02*
X138750000Y-86360000D01*
X137500000Y-86300000D02*
X138690000Y-86300000D01*
X138500000Y-104630000D02*
X138340000Y-104470000D01*
X138500000Y-106100000D02*
X138500000Y-104630000D01*
X138400000Y-113420000D02*
X138340000Y-113360000D01*
X138400000Y-114900000D02*
X138400000Y-113420000D01*
X144500000Y-114200000D02*
X146190000Y-114200000D01*
%TO.N,BUTTON_1*%
X163800000Y-97580000D02*
X163690000Y-97690000D01*
X168680000Y-97580000D02*
X163800000Y-97580000D01*
X168680000Y-88180000D02*
X169230000Y-87630000D01*
X168680000Y-90380000D02*
X168680000Y-88180000D01*
X168680000Y-90380000D02*
X168680000Y-97580000D01*
%TO.N,BUTTON_2*%
X141200000Y-86910000D02*
X140650000Y-86360000D01*
X141200000Y-89110000D02*
X141200000Y-86910000D01*
X141200000Y-97660000D02*
X141200000Y-96310000D01*
X145040000Y-101500000D02*
X141200000Y-97660000D01*
X146190000Y-101500000D02*
X145040000Y-101500000D01*
X141200000Y-96310000D02*
X141200000Y-89110000D01*
%TO.N,Net-(D1-Pad1)*%
X141190000Y-111760000D02*
X136540000Y-111760000D01*
X134940000Y-110160000D02*
X133440000Y-110160000D01*
X136540000Y-111760000D02*
X134940000Y-110160000D01*
%TO.N,RGB_1_CTRL*%
X138340000Y-110160000D02*
X138840000Y-110160000D01*
X141150000Y-107850000D02*
X146190000Y-107850000D01*
X138840000Y-110160000D02*
X141150000Y-107850000D01*
%TO.N,Net-(D2-Pad1)*%
X141190000Y-105410000D02*
X141190000Y-104390000D01*
X141190000Y-104390000D02*
X139700000Y-102900000D01*
X135070000Y-102900000D02*
X133440000Y-101270000D01*
X139700000Y-102900000D02*
X135070000Y-102900000D01*
%TO.N,RGB_2_CTRL*%
X146190000Y-102770000D02*
X142870000Y-102770000D01*
X141370000Y-101270000D02*
X138340000Y-101270000D01*
X142870000Y-102770000D02*
X141370000Y-101270000D01*
%TO.N,RST*%
X163790000Y-104140000D02*
X163690000Y-104040000D01*
X169500000Y-104140000D02*
X163790000Y-104140000D01*
%TO.N,SWO*%
X169500000Y-106680000D02*
X167640000Y-106680000D01*
X166470000Y-107850000D02*
X163690000Y-107850000D01*
X167640000Y-106680000D02*
X166470000Y-107850000D01*
%TO.N,SWD_CLK*%
X170285002Y-102770000D02*
X163690000Y-102770000D01*
X171025001Y-103509999D02*
X170285002Y-102770000D01*
X171025001Y-107874999D02*
X171025001Y-103509999D01*
X170950000Y-107950000D02*
X171025001Y-107874999D01*
X169500000Y-107950000D02*
X170950000Y-107950000D01*
%TO.N,SWD_IO*%
X171475010Y-103323598D02*
X169651412Y-101500000D01*
X171475011Y-108694989D02*
X171475010Y-103323598D01*
X170950000Y-109220000D02*
X171475011Y-108694989D01*
X169651412Y-101500000D02*
X163690000Y-101500000D01*
X169500000Y-109220000D02*
X170950000Y-109220000D01*
%TO.N,Net-(J2-Pad8)*%
X163830000Y-121920000D02*
X163830000Y-120650000D01*
X161925000Y-118745000D02*
X161925000Y-115950000D01*
X163830000Y-120650000D02*
X161925000Y-118745000D01*
%TO.N,Net-(J2-Pad7)*%
X160655000Y-121285000D02*
X160655000Y-115950000D01*
X161290000Y-121920000D02*
X160655000Y-121285000D01*
%TO.N,Net-(J2-Pad6)*%
X159385000Y-121285000D02*
X159385000Y-115950000D01*
X158750000Y-121920000D02*
X159385000Y-121285000D01*
%TO.N,Net-(J2-Pad5)*%
X158115000Y-120015000D02*
X158115000Y-115950000D01*
X156210000Y-121920000D02*
X158115000Y-120015000D01*
%TO.N,Net-(J2-Pad4)*%
X156845000Y-118745000D02*
X156845000Y-115950000D01*
X153670000Y-121920000D02*
X156845000Y-118745000D01*
%TO.N,Net-(J2-Pad3)*%
X155575000Y-117475000D02*
X155575000Y-115950000D01*
X151130000Y-121920000D02*
X155575000Y-117475000D01*
%TO.N,Net-(J2-Pad2)*%
X154305000Y-116515002D02*
X154305000Y-115950000D01*
X150075003Y-120744999D02*
X154305000Y-116515002D01*
X149765001Y-120744999D02*
X150075003Y-120744999D01*
X148590000Y-121920000D02*
X149765001Y-120744999D01*
%TO.N,Net-(J2-Pad1)*%
X153035000Y-117100000D02*
X152025000Y-118110000D01*
X153035000Y-115950000D02*
X153035000Y-117100000D01*
X149860000Y-118110000D02*
X146050000Y-121920000D01*
X152025000Y-118110000D02*
X149860000Y-118110000D01*
%TO.N,RGB_1_PWR*%
X145624998Y-109120000D02*
X146190000Y-109120000D01*
X144964999Y-109779999D02*
X145624998Y-109120000D01*
X144964999Y-111035001D02*
X144964999Y-109779999D01*
X143290000Y-112710000D02*
X144964999Y-111035001D01*
%TO.N,RGB_2_PWR*%
X143320000Y-106360000D02*
X143290000Y-106360000D01*
X145640000Y-104040000D02*
X143320000Y-106360000D01*
X146190000Y-104040000D02*
X145640000Y-104040000D01*
%TD*%
M02*
