%TF.GenerationSoftware,KiCad,Pcbnew,5.1.10-88a1d61d58~88~ubuntu20.04.1*%
%TF.CreationDate,2021-07-15T18:12:03+08:00*%
%TF.ProjectId,ble_heart,626c655f-6865-4617-9274-2e6b69636164,rev?*%
%TF.SameCoordinates,Original*%
%TF.FileFunction,Soldermask,Top*%
%TF.FilePolarity,Negative*%
%FSLAX46Y46*%
G04 Gerber Fmt 4.6, Leading zero omitted, Abs format (unit mm)*
G04 Created by KiCad (PCBNEW 5.1.10-88a1d61d58~88~ubuntu20.04.1) date 2021-07-15 18:12:03*
%MOMM*%
%LPD*%
G01*
G04 APERTURE LIST*
%ADD10C,0.700000*%
%ADD11C,4.400000*%
%ADD12R,1.800000X0.700000*%
%ADD13R,0.700000X1.800000*%
%ADD14R,1.400000X1.600000*%
%ADD15O,1.700000X1.700000*%
%ADD16R,1.700000X1.700000*%
%ADD17R,2.400000X0.740000*%
%ADD18R,1.500000X1.000000*%
G04 APERTURE END LIST*
D10*
%TO.C,H4*%
X135786726Y-83923274D03*
X134620000Y-83440000D03*
X133453274Y-83923274D03*
X132970000Y-85090000D03*
X133453274Y-86256726D03*
X134620000Y-86740000D03*
X135786726Y-86256726D03*
X136270000Y-85090000D03*
D11*
X134620000Y-85090000D03*
%TD*%
D10*
%TO.C,H3*%
X176426726Y-83923274D03*
X175260000Y-83440000D03*
X174093274Y-83923274D03*
X173610000Y-85090000D03*
X174093274Y-86256726D03*
X175260000Y-86740000D03*
X176426726Y-86256726D03*
X176910000Y-85090000D03*
D11*
X175260000Y-85090000D03*
%TD*%
D10*
%TO.C,H2*%
X176426726Y-120753274D03*
X175260000Y-120270000D03*
X174093274Y-120753274D03*
X173610000Y-121920000D03*
X174093274Y-123086726D03*
X175260000Y-123570000D03*
X176426726Y-123086726D03*
X176910000Y-121920000D03*
D11*
X175260000Y-121920000D03*
%TD*%
D10*
%TO.C,H1*%
X135786726Y-120753274D03*
X134620000Y-120270000D03*
X133453274Y-120753274D03*
X132970000Y-121920000D03*
X133453274Y-123086726D03*
X134620000Y-123570000D03*
X135786726Y-123086726D03*
X136270000Y-121920000D03*
D11*
X134620000Y-121920000D03*
%TD*%
D12*
%TO.C,U1*%
X163690000Y-93880000D03*
X163690000Y-95150000D03*
X163690000Y-97690000D03*
X163690000Y-98960000D03*
X163690000Y-100230000D03*
X163690000Y-101500000D03*
X163690000Y-102770000D03*
X163690000Y-104040000D03*
X163690000Y-105310000D03*
X163690000Y-106580000D03*
X163690000Y-107850000D03*
X163690000Y-109120000D03*
X163690000Y-110390000D03*
X163690000Y-111660000D03*
X163690000Y-112930000D03*
X163690000Y-114200000D03*
D13*
X161925000Y-115950000D03*
X160655000Y-115950000D03*
X159385000Y-115950000D03*
X158115000Y-115950000D03*
X156845000Y-115950000D03*
X155575000Y-115950000D03*
X154305000Y-115950000D03*
X153035000Y-115950000D03*
X151765000Y-115950000D03*
X150495000Y-115950000D03*
X149225000Y-115950000D03*
X147955000Y-115950000D03*
D12*
X146190000Y-114200000D03*
X146190000Y-112930000D03*
X146190000Y-111660000D03*
X146190000Y-110390000D03*
X146190000Y-109120000D03*
X146190000Y-107850000D03*
X146190000Y-106580000D03*
X146190000Y-105310000D03*
X146190000Y-104040000D03*
X146190000Y-102770000D03*
X146190000Y-101500000D03*
X146190000Y-100230000D03*
X146190000Y-98960000D03*
X146190000Y-97690000D03*
X146190000Y-95150000D03*
X146190000Y-93880000D03*
%TD*%
D14*
%TO.C,SW2*%
X141200000Y-96310000D03*
X141200000Y-89110000D03*
X138200000Y-96310000D03*
X138200000Y-89110000D03*
%TD*%
%TO.C,SW1*%
X168680000Y-90380000D03*
X168680000Y-97580000D03*
X171680000Y-90380000D03*
X171680000Y-97580000D03*
%TD*%
%TO.C,Q2*%
G36*
G01*
X144010000Y-106060000D02*
X144010000Y-106660000D01*
G75*
G02*
X143940000Y-106730000I-70000J0D01*
G01*
X142640000Y-106730000D01*
G75*
G02*
X142570000Y-106660000I0J70000D01*
G01*
X142570000Y-106060000D01*
G75*
G02*
X142640000Y-105990000I70000J0D01*
G01*
X143940000Y-105990000D01*
G75*
G02*
X144010000Y-106060000I0J-70000D01*
G01*
G37*
G36*
G01*
X144010000Y-104160000D02*
X144010000Y-104760000D01*
G75*
G02*
X143940000Y-104830000I-70000J0D01*
G01*
X142640000Y-104830000D01*
G75*
G02*
X142570000Y-104760000I0J70000D01*
G01*
X142570000Y-104160000D01*
G75*
G02*
X142640000Y-104090000I70000J0D01*
G01*
X143940000Y-104090000D01*
G75*
G02*
X144010000Y-104160000I0J-70000D01*
G01*
G37*
G36*
G01*
X141910000Y-105110000D02*
X141910000Y-105710000D01*
G75*
G02*
X141840000Y-105780000I-70000J0D01*
G01*
X140540000Y-105780000D01*
G75*
G02*
X140470000Y-105710000I0J70000D01*
G01*
X140470000Y-105110000D01*
G75*
G02*
X140540000Y-105040000I70000J0D01*
G01*
X141840000Y-105040000D01*
G75*
G02*
X141910000Y-105110000I0J-70000D01*
G01*
G37*
%TD*%
%TO.C,Q1*%
G36*
G01*
X144010000Y-112410000D02*
X144010000Y-113010000D01*
G75*
G02*
X143940000Y-113080000I-70000J0D01*
G01*
X142640000Y-113080000D01*
G75*
G02*
X142570000Y-113010000I0J70000D01*
G01*
X142570000Y-112410000D01*
G75*
G02*
X142640000Y-112340000I70000J0D01*
G01*
X143940000Y-112340000D01*
G75*
G02*
X144010000Y-112410000I0J-70000D01*
G01*
G37*
G36*
G01*
X144010000Y-110510000D02*
X144010000Y-111110000D01*
G75*
G02*
X143940000Y-111180000I-70000J0D01*
G01*
X142640000Y-111180000D01*
G75*
G02*
X142570000Y-111110000I0J70000D01*
G01*
X142570000Y-110510000D01*
G75*
G02*
X142640000Y-110440000I70000J0D01*
G01*
X143940000Y-110440000D01*
G75*
G02*
X144010000Y-110510000I0J-70000D01*
G01*
G37*
G36*
G01*
X141910000Y-111460000D02*
X141910000Y-112060000D01*
G75*
G02*
X141840000Y-112130000I-70000J0D01*
G01*
X140540000Y-112130000D01*
G75*
G02*
X140470000Y-112060000I0J70000D01*
G01*
X140470000Y-111460000D01*
G75*
G02*
X140540000Y-111390000I70000J0D01*
G01*
X141840000Y-111390000D01*
G75*
G02*
X141910000Y-111460000I0J-70000D01*
G01*
G37*
%TD*%
D15*
%TO.C,J3*%
X171450000Y-116840000D03*
D16*
X171450000Y-114300000D03*
%TD*%
%TO.C,J2*%
X146050000Y-121920000D03*
D15*
X148590000Y-121920000D03*
X151130000Y-121920000D03*
X153670000Y-121920000D03*
X156210000Y-121920000D03*
X158750000Y-121920000D03*
X161290000Y-121920000D03*
X163830000Y-121920000D03*
%TD*%
D17*
%TO.C,J1*%
X169500000Y-104140000D03*
X173400000Y-104140000D03*
X169500000Y-105410000D03*
X173400000Y-105410000D03*
X169500000Y-106680000D03*
X173400000Y-106680000D03*
X169500000Y-107950000D03*
X173400000Y-107950000D03*
X169500000Y-109220000D03*
X173400000Y-109220000D03*
%TD*%
D18*
%TO.C,D2*%
X133440000Y-101270000D03*
X133440000Y-104470000D03*
X138340000Y-101270000D03*
X138340000Y-104470000D03*
%TD*%
%TO.C,D1*%
X133440000Y-110160000D03*
X133440000Y-113360000D03*
X138340000Y-110160000D03*
X138340000Y-113360000D03*
%TD*%
%TO.C,C2*%
G36*
G01*
X139250000Y-85885000D02*
X139250000Y-86835000D01*
G75*
G02*
X139000000Y-87085000I-250000J0D01*
G01*
X138500000Y-87085000D01*
G75*
G02*
X138250000Y-86835000I0J250000D01*
G01*
X138250000Y-85885000D01*
G75*
G02*
X138500000Y-85635000I250000J0D01*
G01*
X139000000Y-85635000D01*
G75*
G02*
X139250000Y-85885000I0J-250000D01*
G01*
G37*
G36*
G01*
X141150000Y-85885000D02*
X141150000Y-86835000D01*
G75*
G02*
X140900000Y-87085000I-250000J0D01*
G01*
X140400000Y-87085000D01*
G75*
G02*
X140150000Y-86835000I0J250000D01*
G01*
X140150000Y-85885000D01*
G75*
G02*
X140400000Y-85635000I250000J0D01*
G01*
X140900000Y-85635000D01*
G75*
G02*
X141150000Y-85885000I0J-250000D01*
G01*
G37*
%TD*%
%TO.C,C1*%
G36*
G01*
X170630000Y-88105000D02*
X170630000Y-87155000D01*
G75*
G02*
X170880000Y-86905000I250000J0D01*
G01*
X171380000Y-86905000D01*
G75*
G02*
X171630000Y-87155000I0J-250000D01*
G01*
X171630000Y-88105000D01*
G75*
G02*
X171380000Y-88355000I-250000J0D01*
G01*
X170880000Y-88355000D01*
G75*
G02*
X170630000Y-88105000I0J250000D01*
G01*
G37*
G36*
G01*
X168730000Y-88105000D02*
X168730000Y-87155000D01*
G75*
G02*
X168980000Y-86905000I250000J0D01*
G01*
X169480000Y-86905000D01*
G75*
G02*
X169730000Y-87155000I0J-250000D01*
G01*
X169730000Y-88105000D01*
G75*
G02*
X169480000Y-88355000I-250000J0D01*
G01*
X168980000Y-88355000D01*
G75*
G02*
X168730000Y-88105000I0J250000D01*
G01*
G37*
%TD*%
M02*
