%TF.GenerationSoftware,KiCad,Pcbnew,5.1.10-88a1d61d58~88~ubuntu20.04.1*%
%TF.CreationDate,2021-07-15T18:12:03+08:00*%
%TF.ProjectId,ble_heart,626c655f-6865-4617-9274-2e6b69636164,rev?*%
%TF.SameCoordinates,Original*%
%TF.FileFunction,Paste,Top*%
%TF.FilePolarity,Positive*%
%FSLAX46Y46*%
G04 Gerber Fmt 4.6, Leading zero omitted, Abs format (unit mm)*
G04 Created by KiCad (PCBNEW 5.1.10-88a1d61d58~88~ubuntu20.04.1) date 2021-07-15 18:12:03*
%MOMM*%
%LPD*%
G01*
G04 APERTURE LIST*
%ADD10R,1.800000X0.700000*%
%ADD11R,0.700000X1.800000*%
%ADD12R,1.400000X1.600000*%
%ADD13R,1.300000X0.600000*%
%ADD14R,2.400000X0.740000*%
%ADD15R,1.500000X1.000000*%
G04 APERTURE END LIST*
D10*
%TO.C,U1*%
X163690000Y-93880000D03*
X163690000Y-95150000D03*
X163690000Y-97690000D03*
X163690000Y-98960000D03*
X163690000Y-100230000D03*
X163690000Y-101500000D03*
X163690000Y-102770000D03*
X163690000Y-104040000D03*
X163690000Y-105310000D03*
X163690000Y-106580000D03*
X163690000Y-107850000D03*
X163690000Y-109120000D03*
X163690000Y-110390000D03*
X163690000Y-111660000D03*
X163690000Y-112930000D03*
X163690000Y-114200000D03*
D11*
X161925000Y-115950000D03*
X160655000Y-115950000D03*
X159385000Y-115950000D03*
X158115000Y-115950000D03*
X156845000Y-115950000D03*
X155575000Y-115950000D03*
X154305000Y-115950000D03*
X153035000Y-115950000D03*
X151765000Y-115950000D03*
X150495000Y-115950000D03*
X149225000Y-115950000D03*
X147955000Y-115950000D03*
D10*
X146190000Y-114200000D03*
X146190000Y-112930000D03*
X146190000Y-111660000D03*
X146190000Y-110390000D03*
X146190000Y-109120000D03*
X146190000Y-107850000D03*
X146190000Y-106580000D03*
X146190000Y-105310000D03*
X146190000Y-104040000D03*
X146190000Y-102770000D03*
X146190000Y-101500000D03*
X146190000Y-100230000D03*
X146190000Y-98960000D03*
X146190000Y-97690000D03*
X146190000Y-95150000D03*
X146190000Y-93880000D03*
%TD*%
D12*
%TO.C,SW2*%
X141200000Y-96310000D03*
X141200000Y-89110000D03*
X138200000Y-96310000D03*
X138200000Y-89110000D03*
%TD*%
%TO.C,SW1*%
X168680000Y-90380000D03*
X168680000Y-97580000D03*
X171680000Y-90380000D03*
X171680000Y-97580000D03*
%TD*%
D13*
%TO.C,Q2*%
X143290000Y-106360000D03*
X143290000Y-104460000D03*
X141190000Y-105410000D03*
%TD*%
%TO.C,Q1*%
X143290000Y-112710000D03*
X143290000Y-110810000D03*
X141190000Y-111760000D03*
%TD*%
D14*
%TO.C,J1*%
X169500000Y-104140000D03*
X173400000Y-104140000D03*
X169500000Y-105410000D03*
X173400000Y-105410000D03*
X169500000Y-106680000D03*
X173400000Y-106680000D03*
X169500000Y-107950000D03*
X173400000Y-107950000D03*
X169500000Y-109220000D03*
X173400000Y-109220000D03*
%TD*%
D15*
%TO.C,D2*%
X133440000Y-101270000D03*
X133440000Y-104470000D03*
X138340000Y-101270000D03*
X138340000Y-104470000D03*
%TD*%
%TO.C,D1*%
X133440000Y-110160000D03*
X133440000Y-113360000D03*
X138340000Y-110160000D03*
X138340000Y-113360000D03*
%TD*%
%TO.C,C2*%
G36*
G01*
X139250000Y-85885000D02*
X139250000Y-86835000D01*
G75*
G02*
X139000000Y-87085000I-250000J0D01*
G01*
X138500000Y-87085000D01*
G75*
G02*
X138250000Y-86835000I0J250000D01*
G01*
X138250000Y-85885000D01*
G75*
G02*
X138500000Y-85635000I250000J0D01*
G01*
X139000000Y-85635000D01*
G75*
G02*
X139250000Y-85885000I0J-250000D01*
G01*
G37*
G36*
G01*
X141150000Y-85885000D02*
X141150000Y-86835000D01*
G75*
G02*
X140900000Y-87085000I-250000J0D01*
G01*
X140400000Y-87085000D01*
G75*
G02*
X140150000Y-86835000I0J250000D01*
G01*
X140150000Y-85885000D01*
G75*
G02*
X140400000Y-85635000I250000J0D01*
G01*
X140900000Y-85635000D01*
G75*
G02*
X141150000Y-85885000I0J-250000D01*
G01*
G37*
%TD*%
%TO.C,C1*%
G36*
G01*
X170630000Y-88105000D02*
X170630000Y-87155000D01*
G75*
G02*
X170880000Y-86905000I250000J0D01*
G01*
X171380000Y-86905000D01*
G75*
G02*
X171630000Y-87155000I0J-250000D01*
G01*
X171630000Y-88105000D01*
G75*
G02*
X171380000Y-88355000I-250000J0D01*
G01*
X170880000Y-88355000D01*
G75*
G02*
X170630000Y-88105000I0J250000D01*
G01*
G37*
G36*
G01*
X168730000Y-88105000D02*
X168730000Y-87155000D01*
G75*
G02*
X168980000Y-86905000I250000J0D01*
G01*
X169480000Y-86905000D01*
G75*
G02*
X169730000Y-87155000I0J-250000D01*
G01*
X169730000Y-88105000D01*
G75*
G02*
X169480000Y-88355000I-250000J0D01*
G01*
X168980000Y-88355000D01*
G75*
G02*
X168730000Y-88105000I0J250000D01*
G01*
G37*
%TD*%
M02*
